PathFileType	4	(X/Y/Z)	C:/Users/beibeiliu/ov580/test_trc/User2\sequence.27_training_dense_left.trc
DataRate	CameraRate	NumFrames	NumMarkers	Units	OrigDataRate	OrigDataStartFrame	OrigNumFrames
120	120	15	19	mm	120	105	278
Frame#	Time	ThumbCMC			ThumbMCP			ThumbIP			ThumbTip			IndexMCP			IndexPIP			IndexTip			MiddleMCP			MiddlePIP			MiddleTip			RingMCP			RingPIP			RingTip			PinkyMCP			PinkyPIP			PinkyTip			BackHand1			BackHand2			BackHand3	
		X0	Y0	Z0	X1	Y1	Z1	X2	Y2	Z2	X3	Y3	Z3	X4	Y4	Z4	X5	Y5	Z5	X6	Y6	Z6	X7	Y7	Z7	X8	Y8	Z8	X9	Y9	Z9	X10	Y10	Z10	X11	Y11	Z11	X12	Y12	Z12	X13	Y13	Z13	X14	Y14	Z14	X15	Y15	Z15	X16	Y16	Z16	X17	Y17	Z17	X18	Y18	Z18	
104	0.866667	-214.854	-37.1034	75.8357	-204.726	-25.0131	40.0548	-186.125	-19.0789	9.17202	-154.539	-29.3726	3.5097	-190.914	-89.8946	14.851	-177.77	-87.8247	-16.7686	-165.071	-60.9892	-35.2386	-161.003	-97.3939	20.1875	-148.406	-91.6818	-14.2585	-144.632	-52.2982	-26.3142	-139.968	-85.8736	22.0259	-132.787	-72.0619	-2.29798	-138.968	-34.0611	-3.81081	-129.063	-71.6273	44.5863	-120.97	-61.349	12.495	-120.21	-33.0594	-0.614449	-158.532	-81.1101	82.1633	-169.399	-73.869	116.237	-200.884	-74.1972	85.6396	
105	0.875	-213.672	-39.2869	73.6722	-205.587	-23.8748	40.9078	-183.733	-22.6383	12.0003	-159.325	-26.1043	4.80757	-193.257	-89.6741	15.5289	-179.177	-90.9646	-12.3949	-168.424	-62.6606	-35.6482	-166.091	-98.3023	20.0954	-149.796	-93.6364	-12.3024	-146.148	-55.0636	-25.2429	-143.227	-85.0834	27.8783	-134.088	-69.929	-3.65165	-139.552	-32.424	-2.92951	-126.713	-72.536	43.5584	-119.956	-62.9292	12.9796	-126.321	-36.3821	0.126604	-163.633	-79.3999	82.2675	-173.094	-73.0833	114.855	-196.589	-75.7278	83.7432	
106	0.883333	-218.456	-37.4344	73.3055	-209.216	-21.7636	40.081	-185.585	-21.6336	10.2415	-155.14	-30.1315	6.03334	-191.479	-91.9452	14.4558	-180.16	-91.798	-14.5507	-168.417	-65.3651	-33.0436	-162.208	-100.184	19.316	-148.551	-92.2964	-11.3395	-143.628	-52.369	-21.4109	-143.287	-85.2596	27.6293	-130.828	-71.4934	0.164037	-136.262	-36.4044	-2.20541	-129.643	-73.5172	40.1744	-118.144	-62.1729	13.044	-123.629	-30.8295	-0.298886	-159.781	-78.7962	81.7935	-172.133	-71.6702	115.969	-201.739	-74.8162	85.9029	
107	0.891667	-216.674	-37.1116	75.5974	-206.357	-25.5182	38.2954	-187.677	-21.4026	11.9061	-158.224	-29.1829	3.72452	-193.916	-91.1138	18.0957	-179.91	-93.1579	-12.6824	-166.765	-66.5591	-31.3863	-161.701	-99.5936	19.6146	-148.146	-90.5968	-12.8424	-143.334	-55.8063	-20.8051	-141.183	-85.3875	26.4622	-128.759	-72.4224	0.547096	-139.231	-36.1902	-3.27452	-129.142	-74.0193	42.3539	-121.32	-62.5977	14.363	-126.268	-33.8006	1.31506	-159.278	-79.4705	83.3607	-172.266	-71.47	115.586	-201.138	-77.5222	85.7394	
108	0.9	-217.6	-37.4125	74.9716	-206.593	-25.6318	40.8075	-190.079	-20.8182	9.83734	-162.499	-25.8461	2.36538	-193.753	-91.5449	17.316	-180.26	-93.5833	-13.2385	-169.701	-65.6236	-34.6264	-164.643	-100.324	18.0445	-147.919	-89.752	-14.2617	-145.477	-53.6541	-23.6711	-140.45	-86.8266	23.4056	-129.951	-72.7572	-0.140805	-138.642	-35.9119	-1.31968	-127.895	-73.8538	41.9131	-118.454	-60.1017	12.2475	-125.961	-35.2708	1.16551	-162.865	-80.5806	82.4026	-173.396	-74.2603	113.104	-199.523	-75.5569	83.888	
109	0.908333	-216.448	-38.2568	72.5636	-212.252	-23.3975	38.1303	-192.39	-20.1063	10.1702	-163.911	-27.8624	0.219942	-191.128	-91.8366	16.32	-181.971	-94.2513	-11.1124	-170.249	-70.6116	-32.2249	-166.044	-97.3899	21.5258	-149.365	-91.438	-14.483	-141.854	-56.5036	-23.1317	-143.145	-87.2621	24.7571	-132.775	-69.5762	-1.46339	-137.092	-37.4667	-0.0200853	-126.169	-74.8548	41.31	-122.016	-59.6029	12.2316	-124.747	-30.1041	4.44792	-162.805	-78.9105	85.3797	-175.077	-73.7424	115.422	-202.686	-75.3001	86.8249	
110	0.916667	-219.939	-35.0131	75.1513	-212.461	-24.0547	36.2198	-194.603	-21.9119	7.96464	-168.566	-29.1129	0.945055	-193.7	-91.992	18.2829	-179.477	-94.1456	-11.9229	-169.881	-72.5194	-31.5936	-167.137	-98.9141	18.2198	-149.48	-90.9539	-13.9307	-145.839	-51.2286	-24.4957	-145.986	-87.6326	24.4431	-134.487	-71.4561	-0.803289	-139.377	-35.6378	3.80884	-129.764	-74.5987	41.0011	-122.409	-58.702	13.7999	-130.195	-30.0768	10.6005	-162.498	-79.0308	85.326	-173.395	-72.0234	115.944	-204.128	-74.5357	86.7064	
111	0.925	-218.243	-34.4477	74.8664	-212.653	-23.178	42.3172	-198.781	-23.8147	9.2973	-173.699	-30.7324	-5.76864	-196.2	-92.6194	20.0566	-182.763	-97.6418	-8.46317	-169.882	-70.2276	-28.9943	-170.765	-100.288	18.769	-152.619	-92.1496	-11.2725	-147.942	-51.6332	-20.0857	-145.662	-87.2542	24.782	-135.45	-70.4995	-0.0370104	-143.807	-36.3516	8.65786	-129.662	-75.0424	43.7963	-122.835	-58.7646	13.6336	-133.579	-23.4633	15.5941	-164.898	-80.0165	80.5521	-175.407	-69.8143	114.626	-201.451	-71.6443	89.4069	
112	0.933333	-220.291	-32.2943	76.3669	-211.545	-26.9593	39.762	-197.979	-30.1577	9.24605	-172.602	-39.2704	-6.45166	-198.96	-94.2496	23.97	-186.593	-99.4767	-8.6818	-173.08	-70.4465	-26.4699	-169.047	-99.6696	24.7698	-158.841	-94.0488	-10.6556	-153.921	-55.2394	-17.7309	-148.196	-87.6677	23.2313	-140.14	-69.2374	0.640931	-150.599	-36.9429	13.3054	-133.502	-75.6555	38.0602	-130.835	-58.406	14.2373	-140.482	-26.0025	22.4392	-164.434	-77.9366	86.3169	-174.458	-68.6192	113.849	-202.939	-72.6192	89.4349	
113	0.941667	-219.506	-33.7967	74.0224	-212.477	-28.6598	42.0501	-198.445	-34.4704	8.1125	-171.121	-47.2893	-3.80654	-200.07	-95.4945	27.528	-186.076	-103.262	-4.92581	-175.929	-74.7777	-23.4596	-168.863	-103.415	21.8967	-160.627	-95.6193	-9.6849	-157.013	-51.4156	-12.6816	-150.771	-88.3736	21.9221	-144.791	-68.5145	1.36824	-153.427	-34.9909	19.8696	-135.4	-76.0915	40.3323	-131.668	-53.7863	12.8873	-141.39	-24.2851	27.1639	-168.536	-79.9779	83.5652	-171.607	-68.1069	117.071	-204.731	-69.7929	92.2753	
114	0.95	-217.478	-32.8792	79.5523	-210.281	-33.8249	40.0512	-195.899	-41.6154	9.00415	-170.408	-50.1788	3.58224	-201.651	-98.6366	30.2937	-188.517	-106.409	-1.21575	-175.294	-81.8399	-18.5295	-175.381	-103.607	25.0332	-158.78	-94.0763	-9.17519	-159.365	-59.5418	-14.8962	-149.007	-89.6674	22.421	-144.9	-70.1765	2.31846	-154.93	-38.1112	17.8387	-138.836	-76.5306	41.8806	-136.522	-56.8787	14.0752	-141.724	-27.1474	28.0317	-166.178	-77.4697	88.291	-169.952	-68.3657	114.885	-202.177	-71.2467	94.7962	
115	0.958333	-215.613	-35.1786	77.8207	-211.179	-32.8506	43.973	-195.735	-44.0517	8.7011	-169.069	-55.3295	6.30724	-202.64	-98.9937	32.2526	-189.068	-109.398	-0.112681	-179.304	-86.2614	-19.4512	-171.613	-106.1	27.2309	-156.572	-96.4457	-6.85924	-159.325	-61.8642	-12.3903	-153.456	-90.014	26.9758	-145.733	-66.9236	1.63409	-156.439	-39.7295	19.5789	-136.85	-79.0965	38.3992	-132.675	-56.4542	15.1455	-145.748	-28.4978	30.1494	-165.476	-79.8366	86.6974	-173.274	-68.3423	116.278	-206.196	-70.3204	91.9293	
116	0.966667	-216.833	-33.6312	79.5622	-210.279	-37.5012	40.2007	-196.907	-44.6996	10.9544	-167.747	-58.2665	10.4037	-200.773	-98.7475	33.0903	-188.697	-112.108	5.80591	-177.842	-88.0032	-19.3214	-171.995	-106.397	30.0549	-159.617	-100.572	-6.64428	-156.793	-61.057	-9.37851	-150.693	-91.5039	28.3618	-145.301	-70.429	2.21389	-152.789	-40.0925	18.7588	-138.217	-79.2655	38.8107	-131.337	-58.8878	14.9622	-141.365	-28.6211	27.8273	-169.39	-82.1728	87.2139	-170.796	-69.8671	118.266	-205.975	-70.9523	95.2321	
117	0.975	-217.558	-33.0029	77.4629	-212.231	-36.7979	37.5941	-196.795	-46.1416	11.4382	-169.287	-58.9471	8.17463	-199.556	-101.806	31.8559	-190.752	-112.405	2.02333	-177.353	-89.6435	-20.8489	-172.05	-107	30.1151	-156.343	-102.203	-3.22394	-154.531	-63.6372	-9.29475	-153.213	-92.3293	26.5653	-145.015	-76.6587	2.62179	-152.839	-41.8656	17.9084	-135.032	-80.1525	42.7152	-131.199	-59.7065	14.915	-142.822	-29.4451	24.8832	-167.531	-82.4255	85.2898	-175.886	-65.5026	118.439	-201.936	-71.919	92.8552	
118	0.983333	-214.048	-34.885	76.3772	-209.458	-37.369	38.3073	-193.491	-47.7684	11.5572	-167.666	-59.8953	2.17002	-202.411	-101.145	30.7571	-190.852	-112.383	0.207288	-176.44	-92.2829	-21.4136	-174.105	-106.8	28.6791	-159.751	-103.38	-4.72686	-155.521	-62.5891	-10.0771	-147.916	-94.3954	25.387	-140.271	-76.7101	3.0877	-150.489	-40.6077	17.452	-134.81	-81.3156	42.7776	-128.686	-64.1865	14.8792	-140.959	-32.2423	20.6331	-165.986	-82.2293	89.0585	-173.517	-67.1814	119.058	-205.839	-68.6053	93.7447	
